<svg width="192" height="107" viewBox="0 0 192 107" fill="none" xmlns="http://www.w3.org/2000/svg">
<g id="mom-logo 1" clip-path="url(#clip0_40_3)">
<path id="Vector" d="M90.8207 11.7981C75.1749 11.7981 62.4439 24.5266 62.4439 40.1749C62.4439 55.8233 75.1723 68.5517 90.8207 68.5517C106.469 68.5517 119.197 55.8233 119.197 40.1749C119.197 24.5266 106.469 11.7981 90.8207 11.7981ZM90.8207 47.7182C86.656 47.7182 83.2774 44.3421 83.2774 40.1749C83.2774 36.0077 86.6535 32.6316 90.8207 32.6316C94.9879 32.6316 98.364 36.0077 98.364 40.1749C98.364 44.3421 94.9879 47.7182 90.8207 47.7182Z" fill="#FBDBE9"/>
<path id="Vector_2" d="M90.8207 14.8108C76.8372 14.8108 65.4591 26.1888 65.4591 40.1723C65.4591 54.1559 76.8372 65.5339 90.8207 65.5339C104.804 65.5339 116.182 54.1559 116.182 40.1723C116.182 26.1888 104.804 14.8108 90.8207 14.8108ZM90.8207 50.401C85.1716 50.401 80.5921 45.8214 80.5921 40.1723C80.5921 34.5233 85.1716 29.9437 90.8207 29.9437C96.4698 29.9437 101.049 34.5233 101.049 40.1723C101.049 45.8214 96.4698 50.401 90.8207 50.401Z" fill="#F5A4C7"/>
<path id="Vector_3" d="M183.314 4.35793V4.33474C183.314 1.97666 185.229 0 187.659 0C190.089 0 191.981 1.95089 191.981 4.30897V4.33216C191.981 6.69024 190.066 8.66432 187.636 8.66432C185.206 8.66432 183.314 6.71343 183.314 4.35535V4.35793ZM191.525 4.33474V4.31154C191.525 2.16737 189.86 0.432958 187.659 0.432958C185.458 0.432958 183.768 2.19314 183.768 4.33474V4.35793C183.768 6.5021 185.432 8.23651 187.633 8.23651C189.834 8.23651 191.525 6.47633 191.525 4.33474ZM185.899 1.94058H187.922C188.52 1.94058 188.986 2.12098 189.298 2.43024C189.538 2.65702 189.669 2.98174 189.669 3.37604V3.39924C189.669 4.12857 189.239 4.58472 188.615 4.76254L189.837 6.47376H188.806L187.705 4.90686H186.76V6.47376H185.899V1.94058ZM187.886 4.15434C188.448 4.15434 188.783 3.87858 188.783 3.4482V3.42501C188.783 2.97143 188.448 2.71887 187.886 2.71887H186.76V4.15691H187.886V4.15434Z" fill="#EC008C"/>
<path id="Vector_4" d="M90.8207 17.04C78.0433 17.04 67.6858 27.3975 67.6858 40.1749C67.6858 52.9523 78.0433 63.3098 90.8207 63.3098C103.598 63.3098 113.956 52.9523 113.956 40.1749C113.956 27.3975 103.598 17.04 90.8207 17.04ZM90.8207 52.4653C84.0325 52.4653 78.5304 46.9631 78.5304 40.1749C78.5304 33.3867 84.0325 27.8846 90.8207 27.8846C97.6089 27.8846 103.111 33.3867 103.111 40.1749C103.111 46.9631 97.6089 52.4653 90.8207 52.4653Z" fill="#EC008C"/>
<path id="Vector_5" d="M45.7338 68.0853V39.0358L36.4896 59.4647H28.4103L19.1661 39.0358V68.0853H4.02031V12.9372H20.5655L32.4487 38.8812L44.4117 12.9372H60.8796V68.0853H45.7338Z" fill="#EC008C"/>
<path id="Vector_6" d="M64.8999 72.1082H41.7109V57.6788L39.0822 63.4851H25.8151L23.1864 57.6788V72.1082H-1.90735e-05V8.9143H23.1478L32.4615 29.2479L41.8371 8.9143H64.8999V72.1056V72.1082ZM49.7541 64.0649H56.8567V16.9575H46.9863L32.4383 48.5094L17.9858 16.9575H8.04321V64.0623H15.1458V20.3928L31.0055 55.4418H33.8944L49.7541 20.3928V64.0649Z" fill="#FBDBE9"/>
<path id="Vector_7" d="M45.7338 68.0853V39.0358L36.4896 59.4647H28.4103L19.1661 39.0358V68.0853H4.02031V12.9372H20.5655L32.4487 38.8812L44.4117 12.9372H60.8796V68.0853H45.7338Z" fill="#EC008C"/>
<path id="Vector_8" d="M45.7338 68.0853V39.0358L36.4896 59.4647H28.4103L19.1661 39.0358V68.0853H4.02031V12.9372H20.5655L32.4487 38.8812L44.4117 12.9372H60.8796V68.0853H45.7338Z" fill="#EC008C"/>
<path id="Vector_9" d="M62.1578 69.3661H44.4529V44.9684L37.3143 60.743H27.5856L20.4469 44.9684V69.3661H2.74205V11.6564H21.3876L32.4538 35.8144L43.5922 11.6564H62.1578V69.3635V69.3661ZM47.012 66.807H59.5987V14.2155H45.2312L32.4461 41.9428L19.7434 14.2155H5.30114V66.8044H17.8879V33.1033L29.235 58.1839H35.6623L47.0094 33.1033V66.8044L47.012 66.807Z" fill="#F5A4C7"/>
<path id="Vector_10" d="M162.885 68.0853V39.0358L153.641 59.4647H145.562L136.317 39.0358V68.0853H121.172V12.9372H137.717L149.6 38.8812L161.563 12.9372H178.031V68.0853H162.885Z" fill="#EC008C"/>
<path id="Vector_11" d="M182.054 72.1082H158.865V57.6788L156.236 63.4851H142.969L140.34 57.6788V72.1082H117.151V8.9143H140.299L149.613 29.2479L158.988 8.9143H182.051V72.1056L182.054 72.1082ZM166.908 64.0649H174.011V16.9575H164.14L149.592 48.5094L135.14 16.9575H125.197V64.0623H132.3V20.3928L148.159 55.4418H151.048L166.908 20.3928V64.0649Z" fill="#FBDBE9"/>
<path id="Vector_12" d="M162.885 68.0853V39.0358L153.641 59.4647H145.562L136.317 39.0358V68.0853H121.172V12.9372H137.717L149.6 38.8812L161.563 12.9372H178.031V68.0853H162.885Z" fill="#EC008C"/>
<path id="Vector_13" d="M162.885 68.0853V39.0358L153.641 59.4647H145.562L136.317 39.0358V68.0853H121.172V12.9372H137.717L149.6 38.8812L161.563 12.9372H178.031V68.0853H162.885Z" fill="#EC008C"/>
<path id="Vector_14" d="M179.312 69.3661H161.607V44.9684L154.468 60.743H144.739L137.601 44.9684V69.3661H119.896V11.6564H138.541L149.608 35.8144L160.746 11.6564H179.312V69.3635V69.3661ZM164.166 66.807H176.753V14.2155H162.385L149.6 41.9428L136.897 14.2155H122.452V66.8044H135.039V33.1033L146.386 58.1839H152.814L164.161 33.1033V66.8044L164.166 66.807Z" fill="#F5A4C7"/>
<path id="Vector_15" d="M14.7283 90.1532V79.6695L10.3987 87.6096H9.1256L4.7754 79.6695V90.1532H2.4766V75.5873H4.93776L9.75958 84.4913L14.5814 75.5873H17.0426V90.1532H14.7231H14.7283Z" fill="#752157"/>
<path id="Vector_16" d="M24.4338 90.3594C23.5988 90.3594 22.8411 90.2125 22.1556 89.9187C21.4726 89.6249 20.8876 89.2255 20.4006 88.7178C19.9161 88.2126 19.5398 87.6225 19.2718 86.9524C19.0063 86.2824 18.8723 85.5711 18.8723 84.8186C18.8723 84.066 19.0063 83.3522 19.2718 82.6744C19.5372 81.9966 19.9135 81.4013 20.4006 80.8884C20.8851 80.3756 21.4701 79.9736 22.1556 79.6772C22.8385 79.3834 23.6039 79.2365 24.4544 79.2365C25.3048 79.2365 26.0445 79.386 26.7223 79.6875C27.4001 79.989 27.9773 80.3885 28.4567 80.8884C28.936 81.3884 29.302 81.9683 29.5545 82.6332C29.8071 83.2955 29.9334 83.9913 29.9334 84.7155C29.9334 84.8804 29.9256 85.0325 29.9128 85.1768C29.8999 85.3211 29.8844 85.4397 29.8715 85.535H21.2768C21.318 86.0144 21.4314 86.4447 21.6144 86.8287C21.7999 87.2127 22.037 87.5426 22.3334 87.8235C22.6272 88.1044 22.9622 88.3183 23.3385 88.4704C23.7148 88.6198 24.1091 88.6972 24.5188 88.6972C24.8203 88.6972 25.1167 88.6585 25.4105 88.5838C25.7043 88.509 25.9749 88.3982 26.2197 88.2565C26.4671 88.1121 26.6836 87.9395 26.8769 87.7333C27.0676 87.5271 27.2197 87.3029 27.3279 87.0555L29.2556 87.6096C28.8871 88.4162 28.2737 89.076 27.4207 89.5888C26.5651 90.1017 25.5703 90.3568 24.4363 90.3568L24.4338 90.3594ZM27.6964 83.9784C27.6552 83.5274 27.5418 83.1099 27.3588 82.7259C27.1733 82.3445 26.9387 82.0172 26.6501 81.7518C26.364 81.4863 26.0264 81.2776 25.645 81.1255C25.261 80.9761 24.859 80.8987 24.4338 80.8987C24.0085 80.8987 23.6091 80.9735 23.2328 81.1255C22.8566 81.275 22.5241 81.4838 22.2381 81.7518C21.952 82.0198 21.7175 82.3445 21.5397 82.7259C21.3618 83.1099 21.2536 83.5248 21.2124 83.9784H27.6938H27.6964Z" fill="#752157"/>
<path id="Vector_17" d="M34.299 90.3594C33.7784 90.3594 33.2965 90.2744 32.8533 90.1017C32.4074 89.9316 32.026 89.6945 31.7039 89.393C31.3817 89.0914 31.1292 88.7358 30.9436 88.326C30.758 87.9163 30.6678 87.4704 30.6678 86.9937C30.6678 86.4885 30.7761 86.0298 30.9951 85.6201C31.2142 85.2103 31.526 84.8546 31.9281 84.5531C32.3301 84.2516 32.8094 84.0197 33.3635 83.8547C33.9176 83.6898 34.5284 83.6073 35.1984 83.6073C35.7036 83.6073 36.2035 83.6511 36.6958 83.7413C37.188 83.8315 37.6313 83.9501 38.0281 84.0995V83.3599C38.0281 82.5662 37.8013 81.9476 37.3503 81.5044C36.8994 81.0611 36.2499 80.8369 35.402 80.8369C34.8273 80.8369 34.2629 80.9426 33.7089 81.1539C33.1548 81.3652 32.5827 81.6693 31.9951 82.0662L31.2967 80.6307C32.678 79.7004 34.1135 79.2365 35.6056 79.2365C37.0978 79.2365 38.2317 79.6128 39.0513 80.3653C39.8708 81.1178 40.2831 82.1976 40.2831 83.6073V87.4833C40.2831 87.9627 40.4816 88.2075 40.8784 88.223V90.1507C40.6594 90.1919 40.4713 90.2202 40.314 90.2331C40.1568 90.246 40.0022 90.2537 39.8527 90.2537C39.4146 90.2537 39.077 90.1455 38.8374 89.9264C38.5977 89.7074 38.4508 89.4265 38.3967 89.0863L38.3348 88.4085C37.8555 89.0373 37.2653 89.5193 36.5592 89.8543C35.8556 90.1893 35.0979 90.3568 34.2913 90.3568L34.299 90.3594ZM34.915 88.6972C35.4613 88.6972 35.9793 88.5992 36.4638 88.4008C36.9483 88.2023 37.3297 87.9266 37.6029 87.5709C37.889 87.3235 38.0333 87.0658 38.0333 86.7926V85.3778C37.6493 85.2283 37.2447 85.1098 36.8117 85.0299C36.3813 84.9474 35.9613 84.9062 35.5489 84.9062C34.7423 84.9062 34.0825 85.0814 33.5697 85.4293C33.0568 85.7773 32.7991 86.2386 32.7991 86.8133C32.7991 87.3467 32.9976 87.7952 33.3945 88.156C33.7913 88.5193 34.2964 88.6997 34.9124 88.6997L34.915 88.6972Z" fill="#752157"/>
<path id="Vector_18" d="M42.7108 75.1775H44.9684V87.0555C44.9684 87.4524 45.0714 87.7642 45.275 87.9884C45.4812 88.2152 45.7673 88.326 46.1358 88.326C46.2853 88.326 46.4605 88.2977 46.659 88.2436C46.8574 88.1895 47.0455 88.1276 47.2234 88.058L47.5506 89.8234C47.2233 89.9728 46.8316 90.094 46.3806 90.1816C45.9296 90.2692 45.525 90.3156 45.1694 90.3156C44.3911 90.3156 43.7855 90.1043 43.3551 89.679C42.9247 89.2564 42.7082 88.6533 42.7082 87.875V75.1775H42.7108Z" fill="#752157"/>
<path id="Vector_19" d="M52.4343 90.3594C51.5736 90.3594 50.7154 90.2202 49.8598 89.9393C49.0041 89.6584 48.2697 89.259 47.6537 88.7384L48.5557 87.3029C49.1974 87.7668 49.834 88.1199 50.4628 88.3595C51.0916 88.5992 51.7359 88.7178 52.3905 88.7178C53.0451 88.7178 53.5914 88.5889 53.9806 88.3286C54.3697 88.0683 54.5656 87.6998 54.5656 87.2205C54.5656 86.7695 54.3465 86.4422 53.9084 86.236C53.4703 86.0298 52.7874 85.8056 51.857 85.5582C51.187 85.3804 50.6123 85.2103 50.1329 85.0454C49.6536 84.8804 49.2644 84.6897 48.9629 84.4707C48.6614 84.2516 48.4423 83.999 48.3057 83.7104C48.1692 83.4243 48.0996 83.0739 48.0996 82.6641C48.0996 82.1177 48.2052 81.6307 48.4166 81.208C48.6279 80.7854 48.9217 80.4246 49.2979 80.1308C49.6742 79.837 50.1149 79.6153 50.62 79.4633C51.1251 79.3138 51.6741 79.2365 52.2616 79.2365C53.0683 79.2365 53.8208 79.3602 54.5192 79.605C55.2176 79.8524 55.8387 80.2081 56.3851 80.672L55.4212 82.025C54.4239 81.2312 53.3621 80.8343 52.241 80.8343C51.6663 80.8343 51.1844 80.9529 50.7953 81.1925C50.4061 81.4322 50.2102 81.8111 50.2102 82.3316C50.2102 82.5507 50.2515 82.7362 50.3339 82.8857C50.4164 83.0352 50.5504 83.1666 50.7334 83.2749C50.919 83.3857 51.1561 83.4836 51.4524 83.5712C51.7462 83.6614 52.1122 83.7594 52.5503 83.8676C53.2745 84.0454 53.9007 84.2232 54.4264 84.4011C54.9522 84.5789 55.3877 84.7876 55.7279 85.0273C56.0706 85.267 56.3232 85.5479 56.4881 85.8675C56.6531 86.1896 56.7355 86.5762 56.7355 87.0272C56.7355 88.0529 56.349 88.8621 55.5758 89.4574C54.8027 90.0527 53.7538 90.3491 52.4266 90.3491L52.4343 90.3594Z" fill="#752157"/>
<path id="Vector_20" d="M69.4614 90.2563C68.4228 90.2563 67.4744 90.0476 66.6188 89.6301C65.7632 89.2126 65.0288 88.6585 64.4128 87.9678C63.7969 87.2772 63.3227 86.4886 62.9877 85.5994C62.6526 84.7103 62.4851 83.8006 62.4851 82.8703C62.4851 81.9399 62.6629 80.9683 63.0186 80.0792C63.3742 79.1901 63.8639 78.4041 64.485 77.7211C65.1061 77.0382 65.8457 76.4944 66.7013 76.0898C67.5569 75.6878 68.4898 75.4842 69.5027 75.4842C70.5155 75.4842 71.4896 75.7007 72.3452 76.1311C73.2008 76.5614 73.9327 77.1258 74.5409 77.8242C75.1491 78.5226 75.6208 79.3112 75.9558 80.1926C76.2908 81.074 76.4583 81.9734 76.4583 82.8909C76.4583 83.8625 76.2831 84.7928 75.9352 85.6819C75.5873 86.571 75.0976 87.3545 74.4688 88.0297C73.84 88.7075 73.0978 89.2461 72.2421 89.6507C71.3865 90.0553 70.4613 90.2563 69.4614 90.2563ZM64.8252 82.8703C64.8252 83.5532 64.9334 84.2181 65.1525 84.8598C65.3715 85.5041 65.6833 86.0711 66.0854 86.5633C66.4874 87.0555 66.9771 87.4498 67.5518 87.7436C68.1265 88.0374 68.7682 88.1843 69.4795 88.1843C70.1907 88.1843 70.8711 88.0297 71.4381 87.723C72.005 87.4163 72.487 87.0091 72.8838 86.5014C73.2807 85.9963 73.5823 85.4268 73.7858 84.798C73.992 84.1691 74.0925 83.5249 74.0925 82.8703C74.0925 82.1719 73.9817 81.507 73.7652 80.8704C73.5462 80.2339 73.2343 79.6746 72.8323 79.1875C72.4277 78.703 71.9432 78.3113 71.3762 78.0175C70.8093 77.7237 70.1753 77.5768 69.4795 77.5768C68.7398 77.5768 68.0852 77.7315 67.5105 78.0381C66.9358 78.3448 66.4513 78.7469 66.0544 79.2391C65.6576 79.7313 65.3535 80.2957 65.1421 80.9323C64.9308 81.5688 64.8252 82.2157 64.8252 82.8703Z" fill="#752157"/>
<path id="Vector_21" d="M87.8441 90.1532H85.5865V84.1434C85.5865 83.1306 85.4268 82.3961 85.1046 81.9373C84.7825 81.4786 84.3083 81.2492 83.6795 81.2492C83.3522 81.2492 83.0223 81.3111 82.695 81.4348C82.3677 81.5585 82.0584 81.7312 81.7724 81.958C81.4863 82.1847 81.2286 82.4502 81.0018 82.7569C80.775 83.0635 80.6024 83.4037 80.4787 83.7723V90.1532H78.2211V79.4246H80.2725V81.5791C80.6823 80.8549 81.2776 80.2828 82.0584 79.8653C82.8367 79.4478 83.7001 79.2391 84.6433 79.2391C85.285 79.2391 85.8133 79.3551 86.2231 79.587C86.6329 79.8189 86.9576 80.1385 87.1972 80.5405C87.4369 80.9451 87.6044 81.409 87.6998 81.9348C87.7951 82.4605 87.8441 83.0197 87.8441 83.6073V90.1507V90.1532Z" fill="#752157"/>
<path id="Vector_22" d="M100.848 89.5992C100.562 89.7357 100.165 89.8904 99.6577 90.0605C99.1526 90.2305 98.6114 90.3182 98.0367 90.3182C97.681 90.3182 97.346 90.2692 97.0316 90.1738C96.7172 90.0785 96.4388 89.9342 96.2017 89.7435C95.9621 89.5528 95.7739 89.3028 95.6373 88.9935C95.5008 88.6868 95.4312 88.3132 95.4312 87.8751V81.1668H94.0163V79.4221H95.4312V75.894H97.6887V79.4221H100.026V81.1668H97.6887V87.156C97.7171 87.54 97.8356 87.8158 98.047 87.9859C98.2583 88.156 98.5212 88.241 98.8356 88.241C99.15 88.241 99.4515 88.1869 99.7376 88.0761C100.024 87.9678 100.238 87.8776 100.374 87.8106L100.846 89.5966L100.848 89.5992Z" fill="#752157"/>
<path id="Vector_23" d="M111.701 90.1532H109.443V84.1434C109.443 83.1589 109.268 82.4296 108.92 81.9579C108.572 81.4863 108.069 81.2492 107.412 81.2492C107.098 81.2492 106.783 81.3111 106.469 81.4348C106.155 81.5585 105.856 81.7312 105.577 81.9579C105.296 82.1847 105.046 82.4502 104.827 82.7569C104.608 83.0635 104.443 83.4037 104.335 83.7723V90.1532H102.078V75.1775H104.335V81.5791C104.745 80.8395 105.302 80.2673 106.008 79.855C106.711 79.4452 107.482 79.2391 108.317 79.2391C108.987 79.2391 109.538 79.3576 109.969 79.5973C110.399 79.837 110.745 80.154 111.005 80.5508C111.265 80.9477 111.445 81.409 111.549 81.9348C111.652 82.4605 111.703 83.0197 111.703 83.6073V90.1507L111.701 90.1532Z" fill="#752157"/>
<path id="Vector_24" d="M118.86 90.3594C118.025 90.3594 117.267 90.2125 116.582 89.9187C115.899 89.6249 115.314 89.2255 114.827 88.7178C114.342 88.2126 113.966 87.6225 113.698 86.9524C113.432 86.2824 113.298 85.5711 113.298 84.8186C113.298 84.066 113.432 83.3522 113.698 82.6744C113.963 81.9966 114.34 81.4013 114.827 80.8884C115.311 80.3756 115.896 79.9736 116.582 79.6772C117.265 79.3834 118.03 79.2365 118.881 79.2365C119.731 79.2365 120.471 79.386 121.148 79.6875C121.826 79.989 122.403 80.3885 122.883 80.8884C123.362 81.3884 123.728 81.9683 123.981 82.6332C124.233 83.2955 124.359 83.9913 124.359 84.7155C124.359 84.8804 124.352 85.0325 124.339 85.1768C124.326 85.3211 124.311 85.4397 124.298 85.535H115.703C115.744 86.0144 115.858 86.4447 116.041 86.8287C116.226 87.2127 116.463 87.5426 116.76 87.8235C117.053 88.1044 117.388 88.3183 117.765 88.4704C118.141 88.6198 118.535 88.6972 118.945 88.6972C119.246 88.6972 119.543 88.6585 119.837 88.5838C120.13 88.509 120.401 88.3982 120.646 88.2565C120.891 88.1147 121.11 87.9395 121.303 87.7333C121.494 87.5271 121.646 87.3029 121.754 87.0555L123.682 87.6096C123.313 88.4162 122.7 89.076 121.847 89.5888C120.991 90.1017 119.996 90.3568 118.862 90.3568L118.86 90.3594ZM122.123 83.9784C122.081 83.5274 121.968 83.1099 121.785 82.7259C121.599 82.3445 121.365 82.0172 121.076 81.7518C120.79 81.4863 120.453 81.2776 120.071 81.1255C119.687 80.9761 119.285 80.8987 118.86 80.8987C118.435 80.8987 118.035 80.9735 117.659 81.1255C117.283 81.275 116.95 81.4838 116.664 81.7518C116.378 82.0198 116.144 82.3445 115.966 82.7259C115.788 83.1099 115.68 83.5248 115.638 83.9784H122.12H122.123Z" fill="#752157"/>
<path id="Vector_25" d="M143.149 90.1532V79.6695L138.82 87.6096H137.547L133.196 79.6695V90.1532H130.898V75.5873H133.359L138.181 84.4913L143.002 75.5873H145.464V90.1532H143.144H143.149Z" fill="#752157"/>
<path id="Vector_26" d="M152.811 90.3594C151.963 90.3594 151.2 90.2099 150.523 89.9084C149.845 89.6069 149.267 89.2048 148.788 88.6972C148.309 88.192 147.94 87.5993 147.68 86.9215C147.42 86.2437 147.291 85.5376 147.291 84.798C147.291 84.0583 147.42 83.3522 147.68 82.6744C147.94 81.9966 148.311 81.4064 148.798 80.8987C149.283 80.3936 149.865 79.989 150.543 79.6875C151.221 79.386 151.976 79.2365 152.811 79.2365C153.646 79.2365 154.401 79.386 155.079 79.6875C155.757 79.989 156.337 80.3911 156.824 80.8987C157.308 81.4039 157.682 81.9966 157.942 82.6744C158.202 83.3522 158.331 84.0583 158.331 84.798C158.331 85.5376 158.202 86.2437 157.942 86.9215C157.682 87.5993 157.308 88.1895 156.824 88.6972C156.339 89.2023 155.757 89.6069 155.079 89.9084C154.401 90.2099 153.646 90.3594 152.811 90.3594ZM149.61 84.8211C149.61 85.3417 149.693 85.8185 149.858 86.2566C150.023 86.6947 150.247 87.0736 150.535 87.3957C150.821 87.7178 151.162 87.9704 151.551 88.156C151.94 88.3415 152.36 88.4317 152.814 88.4317C153.267 88.4317 153.685 88.3389 154.076 88.156C154.468 87.973 154.806 87.7153 155.092 87.3854C155.378 87.0581 155.605 86.6741 155.77 86.236C155.935 85.7979 156.017 85.3211 156.017 84.8005C156.017 84.2799 155.935 83.8186 155.77 83.3754C155.605 82.9321 155.38 82.5455 155.092 82.2157C154.806 81.8884 154.466 81.6307 154.076 81.4451C153.687 81.2595 153.267 81.1693 152.814 81.1693C152.36 81.1693 151.963 81.2647 151.571 81.4554C151.182 81.6461 150.842 81.9064 150.556 82.2337C150.27 82.561 150.041 82.9476 149.868 83.3934C149.698 83.8393 149.613 84.3134 149.613 84.8186L149.61 84.8211Z" fill="#752157"/>
<path id="Vector_27" d="M162.638 90.1532L158.535 79.4246H160.854L163.931 88.2462L167.029 79.4246H169.163L165.06 90.1532H162.64H162.638Z" fill="#752157"/>
<path id="Vector_28" d="M174.928 90.3594C174.093 90.3594 173.335 90.2125 172.65 89.9187C171.967 89.6249 171.382 89.2255 170.895 88.7178C170.41 88.2126 170.034 87.6225 169.766 86.9524C169.501 86.2824 169.367 85.5711 169.367 84.8186C169.367 84.066 169.501 83.3522 169.766 82.6744C170.031 81.9966 170.408 81.4013 170.895 80.8884C171.379 80.3756 171.964 79.9736 172.65 79.6772C173.333 79.3834 174.098 79.2365 174.949 79.2365C175.799 79.2365 176.539 79.386 177.216 79.6875C177.894 79.989 178.472 80.3885 178.951 80.8884C179.43 81.3884 179.796 81.9683 180.049 82.6332C180.301 83.2955 180.428 83.9913 180.428 84.7155C180.428 84.8804 180.42 85.0325 180.407 85.1768C180.394 85.3211 180.379 85.4397 180.366 85.535H171.771C171.812 86.0144 171.926 86.4447 172.109 86.8287C172.294 87.2127 172.531 87.5426 172.828 87.8235C173.121 88.1044 173.456 88.3183 173.833 88.4704C174.209 88.6198 174.603 88.6972 175.013 88.6972C175.315 88.6972 175.611 88.6585 175.905 88.5838C176.198 88.509 176.469 88.3982 176.714 88.2565C176.959 88.1147 177.178 87.9395 177.371 87.7333C177.562 87.5271 177.714 87.3029 177.822 87.0555L179.75 87.6096C179.381 88.4162 178.768 89.076 177.915 89.5888C177.059 90.1017 176.064 90.3568 174.931 90.3568L174.928 90.3594ZM178.191 83.9784C178.149 83.5274 178.036 83.1099 177.853 82.7259C177.667 82.3445 177.433 82.0172 177.144 81.7518C176.858 81.4863 176.521 81.2776 176.139 81.1255C175.755 80.9761 175.353 80.8987 174.928 80.8987C174.503 80.8987 174.103 80.9735 173.727 81.1255C173.351 81.275 173.018 81.4838 172.732 81.7518C172.446 82.0198 172.212 82.3445 172.034 82.7259C171.856 83.1099 171.748 83.5248 171.707 83.9784H178.188H178.191Z" fill="#752157"/>
<path id="Vector_29" d="M7.88085 104.67C7.88085 104.977 7.819 105.258 7.69787 105.513C7.57675 105.768 7.41181 105.99 7.20564 106.178C6.99947 106.366 6.75979 106.51 6.48404 106.613C6.20829 106.716 5.91449 106.768 5.60009 106.768H1.76016V98.6294H5.67998C5.96346 98.6294 6.2186 98.6913 6.44796 98.8124C6.67733 98.9335 6.87319 99.0933 7.03297 99.2892C7.19275 99.485 7.31645 99.7067 7.40665 99.9541C7.49428 100.201 7.53809 100.454 7.53809 100.704C7.53809 101.116 7.435 101.493 7.22883 101.833C7.02266 102.173 6.7366 102.428 6.36807 102.596C6.83453 102.732 7.20306 102.99 7.47366 103.364C7.74426 103.737 7.88085 104.173 7.88085 104.67ZM2.56165 99.3278V102.33H5.35784C5.55627 102.33 5.74183 102.289 5.9145 102.204C6.08716 102.119 6.23406 102.008 6.35519 101.871C6.47631 101.735 6.57424 101.575 6.64125 101.395C6.70825 101.214 6.74433 101.026 6.74433 100.828C6.74433 100.629 6.71083 100.426 6.6464 100.243C6.58197 100.06 6.4892 99.8999 6.37065 99.7659C6.2521 99.6319 6.11293 99.5263 5.95315 99.4438C5.79337 99.3639 5.61555 99.3227 5.42484 99.3227H2.55907L2.56165 99.3278ZM7.07936 104.531C7.07936 104.333 7.04586 104.139 6.97627 103.951C6.90669 103.763 6.81134 103.601 6.68506 103.459C6.55878 103.317 6.4093 103.204 6.23921 103.116C6.06655 103.029 5.88099 102.985 5.68255 102.985H2.56422V106.07H5.60266C5.80883 106.07 6.00212 106.028 6.18252 105.943C6.36292 105.858 6.51754 105.747 6.65156 105.606C6.78557 105.464 6.89123 105.299 6.96597 105.113C7.04328 104.925 7.07936 104.735 7.07936 104.534V104.531Z" fill="#EC008C"/>
<path id="Vector_30" d="M14.7927 106.059V106.771H9.32404V98.632H14.6896V99.3433H10.1281V102.279H14.1046V102.954H10.1281V106.059H14.7927Z" fill="#EC008C"/>
<path id="Vector_31" d="M22.0138 99.3407H19.1146V106.768H18.3131V99.3407H15.4138V98.6294H22.0164V99.3407H22.0138Z" fill="#EC008C"/>
<path id="Vector_32" d="M28.9386 99.3407H26.0393V106.768H25.2378V99.3407H22.3386V98.6294H28.9412V99.3407H28.9386Z" fill="#EC008C"/>
<path id="Vector_33" d="M35.5515 106.059V106.771H30.0828V98.632H35.4484V99.3433H30.8869V102.279H34.866V102.954H30.8869V106.059H35.5515Z" fill="#EC008C"/>
<path id="Vector_34" d="M36.9973 106.768V98.6294H40.4352C40.7857 98.6294 41.1104 98.7042 41.4042 98.8536C41.698 99.0031 41.9531 99.1964 42.167 99.4386C42.3809 99.6783 42.5459 99.9515 42.6644 100.258C42.7829 100.565 42.8422 100.874 42.8422 101.186C42.8422 101.498 42.7984 101.768 42.7108 102.039C42.6232 102.31 42.4995 102.554 42.3448 102.773C42.1876 102.993 41.9995 103.175 41.7779 103.325C41.5562 103.474 41.3088 103.575 41.0331 103.629L43.0278 106.771H42.1232L40.2084 103.768H37.8013V106.771H36.9999L36.9973 106.768ZM37.7988 103.054H40.4584C40.6955 103.054 40.9119 103.003 41.1052 102.9C41.3011 102.797 41.466 102.657 41.6026 102.482C41.7392 102.307 41.8474 102.109 41.9248 101.887C42.0021 101.665 42.0382 101.433 42.0382 101.189C42.0382 100.944 41.9943 100.709 41.9067 100.482C41.8191 100.258 41.7005 100.06 41.5511 99.8922C41.4016 99.7247 41.2264 99.5907 41.0228 99.4902C40.8192 99.3897 40.6078 99.3407 40.3862 99.3407H37.7962V103.054H37.7988Z" fill="#EC008C"/>
<path id="Vector_35" d="M47.2672 106.768V98.6294H52.6096V99.3407H48.0712V102.333H51.9008V102.998H48.0712V106.768H47.2697H47.2672Z" fill="#752157"/>
<path id="Vector_36" d="M57.0474 106.827C56.483 106.827 55.965 106.711 55.4934 106.477C55.0243 106.245 54.6197 105.936 54.2847 105.549C53.9471 105.162 53.6894 104.722 53.5064 104.224C53.3234 103.727 53.2307 103.219 53.2307 102.699C53.2307 102.178 53.3286 101.637 53.5219 101.14C53.7177 100.642 53.9858 100.204 54.3311 99.8201C54.6738 99.4386 55.081 99.1345 55.5475 98.9078C56.014 98.6835 56.5191 98.5702 57.0603 98.5702C57.6015 98.5702 58.1427 98.6913 58.6143 98.9309C59.0859 99.1706 59.4854 99.4876 59.8178 99.8768C60.1503 100.266 60.408 100.709 60.5909 101.201C60.7739 101.694 60.8667 102.196 60.8667 102.709C60.8667 103.253 60.7688 103.771 60.5755 104.268C60.3796 104.766 60.1142 105.201 59.774 105.58C59.4338 105.959 59.0318 106.26 58.5653 106.485C58.0989 106.711 57.5937 106.822 57.0525 106.822L57.0474 106.827ZM54.0321 102.701C54.0321 103.145 54.1043 103.57 54.2512 103.98C54.3955 104.389 54.6017 104.753 54.8697 105.07C55.1377 105.387 55.4547 105.639 55.8207 105.827C56.1866 106.015 56.5964 106.108 57.0474 106.108C57.4984 106.108 57.9236 106.01 58.2973 105.809C58.671 105.611 58.988 105.351 59.2483 105.031C59.5085 104.709 59.7096 104.348 59.8513 103.941C59.993 103.536 60.0626 103.124 60.0626 102.704C60.0626 102.261 59.9879 101.835 59.8384 101.426C59.6889 101.016 59.4802 100.655 59.2148 100.343C58.9467 100.029 58.6297 99.7788 58.2638 99.5933C57.8978 99.4051 57.4906 99.3124 57.05 99.3124C56.6093 99.3124 56.1737 99.4103 55.8001 99.6036C55.4264 99.7994 55.1094 100.057 54.8491 100.377C54.5888 100.699 54.3878 101.06 54.246 101.467C54.1043 101.871 54.0347 102.284 54.0347 102.704L54.0321 102.701Z" fill="#752157"/>
<path id="Vector_37" d="M65.5854 106.827C65.021 106.827 64.503 106.711 64.0314 106.477C63.5624 106.245 63.1577 105.936 62.8227 105.549C62.4851 105.162 62.2274 104.722 62.0444 104.224C61.8614 103.727 61.7687 103.219 61.7687 102.699C61.7687 102.178 61.8666 101.637 62.0599 101.14C62.2557 100.642 62.5238 100.204 62.8691 99.8201C63.2119 99.4386 63.6191 99.1345 64.0855 98.9078C64.552 98.6835 65.0571 98.5702 65.5983 98.5702C66.1395 98.5702 66.6807 98.6913 67.1523 98.9309C67.6239 99.1706 68.0234 99.4876 68.3558 99.8768C68.6883 100.266 68.946 100.709 69.129 101.201C69.3119 101.694 69.4047 102.196 69.4047 102.709C69.4047 103.253 69.3068 103.771 69.1135 104.268C68.9176 104.766 68.6522 105.201 68.312 105.58C67.9718 105.959 67.5698 106.26 67.1033 106.485C66.6369 106.711 66.1318 106.822 65.5906 106.822L65.5854 106.827ZM62.5702 102.701C62.5702 103.145 62.6423 103.57 62.7892 103.98C62.9335 104.389 63.1397 104.753 63.4077 105.07C63.6757 105.387 63.9927 105.639 64.3587 105.827C64.7246 106.015 65.1344 106.108 65.5854 106.108C66.0364 106.108 66.4616 106.01 66.8353 105.809C67.209 105.611 67.526 105.351 67.7863 105.031C68.0466 104.709 68.2476 104.348 68.3893 103.941C68.5311 103.536 68.6006 103.124 68.6006 102.704C68.6006 102.261 68.5259 101.835 68.3764 101.426C68.227 101.016 68.0182 100.655 67.7528 100.343C67.4847 100.029 67.1678 99.7788 66.8018 99.5933C66.4359 99.4051 66.0287 99.3124 65.588 99.3124C65.1473 99.3124 64.7118 99.4103 64.3381 99.6036C63.9644 99.7994 63.6474 100.057 63.3871 100.377C63.1268 100.699 62.9258 101.06 62.7841 101.467C62.6423 101.871 62.5727 102.284 62.5727 102.704L62.5702 102.701Z" fill="#752157"/>
<path id="Vector_38" d="M70.8479 106.768V98.6294H73.6106C74.26 98.6294 74.827 98.7377 75.3141 98.9516C75.7986 99.1655 76.2032 99.4567 76.5305 99.8226C76.8552 100.189 77.1 100.619 77.265 101.111C77.4299 101.603 77.5124 102.129 77.5124 102.688C77.5124 103.307 77.4196 103.866 77.2366 104.369C77.0537 104.869 76.7908 105.296 76.4506 105.652C76.1104 106.008 75.7007 106.284 75.2239 106.477C74.7471 106.673 74.2085 106.768 73.6132 106.768H70.8505H70.8479ZM76.7057 102.686C76.7057 102.196 76.6362 101.748 76.4996 101.338C76.363 100.928 76.162 100.575 75.8965 100.279C75.6336 99.9798 75.3089 99.7505 74.9275 99.5855C74.5461 99.4206 74.1054 99.3381 73.608 99.3381H71.6468V106.057H73.608C74.1131 106.057 74.5564 105.972 74.943 105.799C75.3295 105.626 75.6517 105.389 75.912 105.088C76.1723 104.786 76.3681 104.431 76.5021 104.021C76.6362 103.611 76.7032 103.168 76.7032 102.686H76.7057Z" fill="#752157"/>
<path id="Vector_39" d="M81.8291 106.768V98.6294H84.5918C85.2412 98.6294 85.8082 98.7377 86.2952 98.9516C86.7797 99.1655 87.1844 99.4567 87.5117 99.8226C87.8364 100.189 88.0812 100.619 88.2461 101.111C88.4111 101.603 88.4935 102.129 88.4935 102.688C88.4935 103.307 88.4008 103.866 88.2178 104.369C88.0348 104.869 87.7719 105.296 87.4318 105.652C87.0916 106.008 86.6818 106.284 86.205 106.477C85.7283 106.673 85.1897 106.768 84.5943 106.768H81.8317H81.8291ZM87.6869 102.686C87.6869 102.196 87.6173 101.748 87.4807 101.338C87.3441 100.928 87.1431 100.575 86.8777 100.279C86.6148 99.9798 86.2901 99.7505 85.9087 99.5855C85.5273 99.4206 85.0866 99.3381 84.5892 99.3381H82.628V106.057H84.5892C85.0943 106.057 85.5376 105.972 85.9241 105.799C86.3107 105.626 86.6329 105.389 86.8931 105.088C87.1534 104.786 87.3493 104.431 87.4833 104.021C87.6173 103.611 87.6843 103.168 87.6843 102.686H87.6869Z" fill="#752157"/>
<path id="Vector_40" d="M95.426 106.059V106.771H89.9573V98.632H95.3229V99.3433H90.7614V102.279H94.7405V102.954H90.7614V106.059H95.426Z" fill="#752157"/>
<path id="Vector_41" d="M96.8692 106.768V98.6294H97.6707V106.057H102.371V106.768H96.8692Z" fill="#752157"/>
<path id="Vector_42" d="M103.485 106.768V98.6294H104.286V106.768H103.485Z" fill="#752157"/>
<path id="Vector_43" d="M106.224 98.6294L109.136 105.771L112.036 98.6294H112.873L109.479 106.768H108.781L105.387 98.6294H106.224Z" fill="#752157"/>
<path id="Vector_44" d="M119.44 106.059V106.771H113.971V98.632H119.337V99.3433H114.775V102.279H118.754V102.954H114.775V106.059H119.44Z" fill="#752157"/>
<path id="Vector_45" d="M120.885 106.768V98.6294H124.323C124.674 98.6294 124.999 98.7042 125.292 98.8536C125.586 99.0031 125.841 99.1964 126.055 99.4386C126.269 99.6783 126.434 99.9515 126.553 100.258C126.671 100.565 126.73 100.874 126.73 101.186C126.73 101.498 126.687 101.768 126.599 102.039C126.511 102.31 126.388 102.554 126.233 102.773C126.076 102.993 125.888 103.175 125.666 103.325C125.444 103.474 125.197 103.575 124.921 103.629L126.916 106.771H126.011L124.097 103.768H121.69V106.771H120.888L120.885 106.768ZM121.687 103.054H124.347C124.584 103.054 124.8 103.003 124.993 102.9C125.189 102.797 125.354 102.657 125.491 102.482C125.627 102.307 125.736 102.109 125.813 101.887C125.89 101.665 125.926 101.433 125.926 101.189C125.926 100.944 125.883 100.709 125.795 100.482C125.707 100.258 125.589 100.06 125.439 99.8922C125.29 99.7247 125.115 99.5907 124.911 99.4902C124.707 99.3897 124.496 99.3407 124.274 99.3407H121.684V103.054H121.687Z" fill="#752157"/>
<path id="Vector_46" d="M133.771 106.059V106.771H128.303V98.632H133.668V99.3433H129.107V102.279H133.086V102.954H129.107V106.059H133.771Z" fill="#752157"/>
<path id="Vector_47" d="M135.214 106.768V98.6294H137.977C138.626 98.6294 139.193 98.7377 139.681 98.9516C140.165 99.1655 140.57 99.4567 140.897 99.8226C141.222 100.189 141.466 100.619 141.631 101.111C141.796 101.603 141.879 102.129 141.879 102.688C141.879 103.307 141.786 103.866 141.603 104.369C141.42 104.869 141.157 105.296 140.817 105.652C140.477 106.008 140.067 106.284 139.59 106.477C139.114 106.673 138.575 106.768 137.98 106.768H135.217H135.214ZM141.072 102.686C141.072 102.196 141.003 101.748 140.866 101.338C140.729 100.928 140.528 100.575 140.263 100.279C140 99.9798 139.675 99.7505 139.294 99.5855C138.913 99.4206 138.472 99.3381 137.974 99.3381H136.013V106.057H137.974C138.48 106.057 138.923 105.972 139.309 105.799C139.696 105.626 140.018 105.389 140.278 105.088C140.539 104.786 140.735 104.431 140.869 104.021C141.003 103.611 141.07 103.168 141.07 102.686H141.072Z" fill="#752157"/>
<path id="Vector_48" d="M146.196 106.768V98.6294H151.538V99.3407H147V102.333H150.829V102.998H147V106.768H146.198H146.196Z" fill="#EC008C"/>
<path id="Vector_49" d="M152.881 106.768V98.6294H156.319C156.669 98.6294 156.994 98.7042 157.288 98.8536C157.581 99.0031 157.836 99.1964 158.05 99.4386C158.264 99.6783 158.429 99.9515 158.548 100.258C158.666 100.565 158.726 100.874 158.726 101.186C158.726 101.498 158.682 101.768 158.594 102.039C158.506 102.31 158.383 102.554 158.228 102.773C158.071 102.993 157.883 103.175 157.661 103.325C157.44 103.474 157.192 103.575 156.916 103.629L158.911 106.771H158.007L156.092 103.768H153.685V106.771H152.883L152.881 106.768ZM153.682 103.054H156.342C156.579 103.054 156.795 103.003 156.989 102.9C157.184 102.797 157.349 102.657 157.486 102.482C157.623 102.307 157.731 102.109 157.808 101.887C157.885 101.665 157.921 101.433 157.921 101.189C157.921 100.944 157.878 100.709 157.79 100.482C157.702 100.258 157.584 100.06 157.434 99.8922C157.285 99.7247 157.11 99.5907 156.906 99.4902C156.703 99.3897 156.491 99.3407 156.27 99.3407H153.68V103.054H153.682Z" fill="#EC008C"/>
<path id="Vector_50" d="M165.764 106.059V106.771H160.295V98.632H165.661V99.3433H161.099V102.279H165.078V102.954H161.099V106.059H165.764Z" fill="#EC008C"/>
<path id="Vector_51" d="M171.794 100.155C171.565 99.8948 171.258 99.686 170.877 99.5237C170.495 99.3639 170.06 99.284 169.57 99.284C168.851 99.284 168.328 99.4206 168.001 99.6912C167.671 99.9618 167.508 100.33 167.508 100.797C167.508 101.042 167.552 101.243 167.64 101.4C167.727 101.557 167.864 101.691 168.047 101.807C168.23 101.92 168.465 102.021 168.753 102.106C169.039 102.191 169.377 102.273 169.769 102.359C170.204 102.451 170.596 102.554 170.944 102.668C171.292 102.781 171.588 102.925 171.833 103.098C172.078 103.271 172.263 103.48 172.395 103.722C172.524 103.967 172.591 104.273 172.591 104.639C172.591 105.005 172.518 105.338 172.371 105.613C172.227 105.889 172.024 106.119 171.763 106.302C171.503 106.485 171.194 106.621 170.835 106.709C170.477 106.796 170.083 106.84 169.655 106.84C168.395 106.84 167.305 106.446 166.387 105.66L166.789 105.005C166.934 105.157 167.109 105.304 167.31 105.441C167.514 105.577 167.738 105.698 167.985 105.802C168.233 105.905 168.498 105.985 168.782 106.041C169.065 106.098 169.361 106.126 169.676 106.126C170.325 106.126 170.83 106.01 171.194 105.776C171.557 105.544 171.737 105.188 171.737 104.717C171.737 104.464 171.686 104.253 171.583 104.08C171.48 103.907 171.325 103.758 171.119 103.634C170.913 103.511 170.658 103.4 170.351 103.307C170.044 103.214 169.689 103.124 169.284 103.031C168.856 102.933 168.483 102.828 168.16 102.722C167.838 102.616 167.568 102.482 167.346 102.32C167.124 102.16 166.957 101.967 166.849 101.74C166.738 101.516 166.684 101.237 166.684 100.908C166.684 100.534 166.753 100.199 166.895 99.9051C167.037 99.6113 167.238 99.3665 167.498 99.1706C167.758 98.9748 168.062 98.8279 168.416 98.7248C168.766 98.6217 169.158 98.5702 169.586 98.5702C170.129 98.5702 170.611 98.6526 171.036 98.8176C171.462 98.9825 171.846 99.2119 172.188 99.5108L171.799 100.153L171.794 100.155Z" fill="#EC008C"/>
<path id="Vector_52" d="M180.345 98.6294V106.768H179.554V102.962H174.727V106.768H173.925V98.6294H174.727V102.253H179.554V98.6294H180.345Z" fill="#EC008C"/>
<path id="Vector_53" d="M182.043 106.768V105.644H182.719V106.768H182.043Z" fill="#752157"/>
</g>
<defs>
<clipPath id="clip0_40_3">
<rect width="191.981" height="106.838" fill="white"/>
</clipPath>
</defs>
</svg>
